<svg width="50" height="50" viewBox="0 0 50 50" fill="none" xmlns="http://www.w3.org/2000/svg">
<g clip-path="url(#clip0_2_3649)">
<path d="M48.4376 14.0627H39.0626V5.93772C39.0626 5.53068 39.3844 5.18928 39.7946 5.16193L46.1938 4.73303C47.0141 4.68537 47.6563 4.00022 47.6563 3.17209V1.6174C47.6563 1.18537 47.4751 0.768184 47.1594 0.473653C46.8438 0.179122 46.4165 0.0236532 45.9876 0.0572469L38.7547 0.541622C36.2985 0.699434 34.3751 2.75412 34.3751 5.21897V11.719C34.3751 12.1502 34.7251 12.5002 35.1563 12.5002C35.5876 12.5002 35.9376 12.1502 35.9376 11.719V5.21897C35.9376 3.57522 37.2188 2.20568 38.8571 2.09943L46.0938 1.6174L46.0962 3.17443L39.6899 3.60412C38.4618 3.68537 37.5001 4.71115 37.5001 5.93772V14.0627H25.0001C24.1383 14.0627 23.4376 14.7635 23.4376 15.6252V17.1877C23.4376 18.0494 24.1383 18.7502 25.0001 18.7502H25.0383L25.2337 22.6565H10.9376C6.09694 22.6565 2.086 26.2838 1.60865 31.0932C1.56569 31.5315 1.71022 31.9697 2.00709 32.2971C2.30397 32.6244 2.72741 32.8127 3.16881 32.8127H3.39928C3.22897 33.169 3.12506 33.5635 3.12506 33.9846C3.12506 34.5041 3.27897 34.9854 3.53131 35.3994C3.36178 35.4276 3.18912 35.4424 3.02194 35.476L1.85787 35.7041C0.781311 35.926 6.10352e-05 36.8822 6.10352e-05 37.9768C6.10352e-05 38.6705 0.307092 39.3205 0.841467 39.7604C1.36647 40.1916 2.04928 40.3658 2.72037 40.2471C2.48678 40.7166 2.34381 41.2385 2.34381 41.7971V42.5783C2.34381 43.3744 2.61959 44.101 3.06725 44.6908C2.76334 44.8072 2.48678 44.9815 2.25944 45.2143C1.81022 45.6526 1.56256 46.2416 1.56256 46.8752C1.56256 48.5987 2.96412 50.0002 4.68756 50.0002H30.6641H45.5407C46.379 50.0002 47.0649 49.344 47.1016 48.5057L48.404 18.7502H48.4376C49.2993 18.7502 50.0001 18.0494 50.0001 17.1877V15.6252C50.0001 14.7635 49.2993 14.0627 48.4376 14.0627ZM3.16334 31.2471C3.56178 27.2408 6.90319 24.219 10.9376 24.219H26.5626C28.6516 24.219 30.6141 25.0315 32.0883 26.5065C32.4602 26.8776 32.8047 27.3041 33.1126 27.7729C33.7899 28.8041 34.2126 30.0033 34.3313 31.2502L3.16334 31.2471ZM5.85944 35.1565C5.21334 35.1565 4.68756 34.6307 4.68756 33.9846C4.68756 33.3385 5.21334 32.8127 5.85944 32.8127H31.6407C32.2868 32.8127 32.8126 33.3385 32.8126 33.9846C32.8126 34.6307 32.2868 35.1565 31.6407 35.1565H31.2657H6.23444H5.85944ZM1.83365 38.5533C1.73209 38.4697 1.56256 38.2846 1.56256 37.9768C1.56256 37.6143 1.81412 37.3088 2.16569 37.2362L3.32584 37.0088C4.27819 36.8166 5.25709 36.719 6.23444 36.719H31.2657C32.243 36.719 33.2219 36.8166 34.1782 37.0096L35.3266 37.2346C35.686 37.308 35.9376 37.6143 35.9376 37.9768C35.9376 38.4447 35.5133 38.819 35.036 38.7104L32.9657 38.2963C32.9149 38.2862 32.8641 38.2815 32.8126 38.2815H31.6407H30.4688C30.3063 38.2815 30.1477 38.3322 30.0157 38.4268L25.8641 41.3838L25.818 41.4205C25.3032 41.7901 24.6227 41.8127 24.0899 41.4807L19.1649 38.4002C19.0399 38.3229 18.8969 38.2815 18.7501 38.2815H5.85944H4.68756C4.636 38.2815 4.58522 38.2862 4.53444 38.2971L2.46647 38.7104C2.24225 38.7557 2.00944 38.6979 1.83365 38.5533ZM5.85944 44.5315C4.78287 44.5315 3.90631 43.6549 3.90631 42.5783V41.7971C3.90631 40.8541 4.57819 40.0651 5.46881 39.8838V40.2346C5.46881 41.3112 6.34537 42.1877 7.42194 42.1877C7.56803 42.1877 7.70944 42.169 7.84694 42.1377C8.00944 43.0526 8.80553 43.7502 9.76569 43.7502C10.586 43.7502 11.2868 43.2408 11.5758 42.5229C12.7102 43.1471 14.3055 43.0799 15.3188 42.3135C15.5024 42.1768 15.7485 42.1768 15.9282 42.3112C16.4899 42.7354 17.2149 42.969 17.9688 42.969C18.7266 42.969 19.4633 42.7268 20.043 42.2862C20.386 42.0252 20.4532 41.5354 20.1922 41.1916C19.9313 40.8494 19.4422 40.7815 19.0977 41.0424C18.4813 41.5112 17.4602 41.5104 16.8657 41.0612C16.1235 40.508 15.1274 40.508 14.3805 41.0635C13.7805 41.5166 12.704 41.4994 12.1251 41.0166C11.8633 40.7987 11.7188 40.5205 11.7188 40.2346V39.844H18.5258L23.2594 42.8049C24.3376 43.4737 25.6993 43.4299 26.7532 42.6721L30.7188 39.844H31.6407C32.1524 39.844 32.6337 40.0424 32.9946 40.4041C33.0165 40.426 33.0399 40.4463 33.0641 40.4658C33.1883 40.5947 33.2852 40.7448 33.3672 40.9049C33.2969 40.9479 33.2266 40.9908 33.1602 41.0432C32.5438 41.5119 31.5188 41.5088 30.9321 41.0651C30.586 40.8049 30.0977 40.8737 29.8376 41.2182C29.5774 41.5627 29.6462 42.0526 29.9907 42.3127C30.5524 42.7354 31.2774 42.969 32.0313 42.969C32.579 42.969 33.1141 42.8385 33.5915 42.5994C33.5805 43.6666 32.7102 44.5315 31.6407 44.5315H5.85944ZM10.1563 41.7971C10.1563 42.0127 9.98131 42.1877 9.76569 42.1877C9.55006 42.1877 9.37506 42.0127 9.37506 41.7971V40.2346V39.844H10.1563V41.7971ZM7.42194 40.6252C7.20631 40.6252 7.03131 40.4502 7.03131 40.2346V39.844H7.81256V40.2346C7.81256 40.4502 7.63756 40.6252 7.42194 40.6252ZM4.68756 48.4377C3.82584 48.4377 3.12506 47.7369 3.12506 46.8752C3.12506 46.6666 3.20475 46.4744 3.36412 46.319C3.50553 46.1737 3.69772 46.094 3.90631 46.094H5.85944H31.6407H33.5938C34.0243 46.094 34.3751 46.4447 34.3751 46.8752C34.3751 47.2916 34.2126 47.6838 33.9165 47.9791C33.6204 48.2744 33.229 48.4377 32.8126 48.4377H30.6641H4.68756ZM35.504 48.4377C35.779 47.9658 35.9376 47.4346 35.9376 46.8752C35.9376 45.8783 35.3102 45.0315 34.4313 44.6932C34.8797 44.1026 35.1563 43.3752 35.1563 42.5783V41.7971C35.1563 41.6151 35.1438 41.433 35.1172 41.2971C35.0844 41.0643 35.0227 40.8416 34.9469 40.6252H45.8829L45.5407 48.4377H35.504ZM46.4985 26.5627H36.7188C36.2876 26.5627 35.9376 26.9127 35.9376 27.344C35.9376 27.7752 36.2876 28.1252 36.7188 28.1252H46.4297L45.9508 39.0627H37.2165C37.3915 38.7377 37.5001 38.3713 37.5001 37.9768C37.5001 36.8822 36.7188 35.926 35.6344 35.7026L34.4821 35.4768C34.3126 35.4424 34.1391 35.4283 33.968 35.3994C34.2212 34.9854 34.3751 34.5041 34.3751 33.9846C34.3751 33.5635 34.2712 33.169 34.1008 32.8127H34.3313C34.7719 32.8127 35.1946 32.6252 35.4907 32.2979C35.7883 31.969 35.9337 31.5268 35.8899 31.0862C35.7422 29.5994 35.2337 28.1565 34.418 26.9158C34.0516 26.358 33.6391 25.8479 33.1922 25.4018C31.479 23.6877 29.2149 22.7283 26.7977 22.669L26.6024 18.7502H46.8399L46.4985 26.5627ZM48.4376 17.1877H25.0001V15.6252H48.4376V17.1877Z" fill="#C59D5F"/>
<path d="M16.4063 25.0002H15.6251C15.1938 25.0002 14.8438 25.3502 14.8438 25.7815C14.8438 26.2127 15.1938 26.5627 15.6251 26.5627H16.4063C16.8376 26.5627 17.1876 26.2127 17.1876 25.7815C17.1876 25.3502 16.8376 25.0002 16.4063 25.0002Z" fill="#C59D5F"/>
<path d="M21.0938 25.0002H20.3126C19.8813 25.0002 19.5313 25.3502 19.5313 25.7815C19.5313 26.2127 19.8813 26.5627 20.3126 26.5627H21.0938C21.5251 26.5627 21.8751 26.2127 21.8751 25.7815C21.8751 25.3502 21.5251 25.0002 21.0938 25.0002Z" fill="#C59D5F"/>
<path d="M25.7813 25.7815H25.0001C24.5688 25.7815 24.2188 26.1315 24.2188 26.5627C24.2188 26.994 24.5688 27.344 25.0001 27.344H25.7813C26.2126 27.344 26.5626 26.994 26.5626 26.5627C26.5626 26.1315 26.2126 25.7815 25.7813 25.7815Z" fill="#C59D5F"/>
<path d="M13.2813 27.344H12.5001C12.0688 27.344 11.7188 27.694 11.7188 28.1252C11.7188 28.5565 12.0688 28.9065 12.5001 28.9065H13.2813C13.7126 28.9065 14.0626 28.5565 14.0626 28.1252C14.0626 27.694 13.7126 27.344 13.2813 27.344Z" fill="#C59D5F"/>
<path d="M19.5313 27.344H18.7501C18.3188 27.344 17.9688 27.694 17.9688 28.1252C17.9688 28.5565 18.3188 28.9065 18.7501 28.9065H19.5313C19.9626 28.9065 20.3126 28.5565 20.3126 28.1252C20.3126 27.694 19.9626 27.344 19.5313 27.344Z" fill="#C59D5F"/>
<path d="M10.9376 25.0002H10.1563C9.72506 25.0002 9.37506 25.3502 9.37506 25.7815C9.37506 26.2127 9.72506 26.5627 10.1563 26.5627H10.9376C11.3688 26.5627 11.7188 26.2127 11.7188 25.7815C11.7188 25.3502 11.3688 25.0002 10.9376 25.0002Z" fill="#C59D5F"/>
</g>
<defs>
<clipPath id="clip0_2_3649">
<rect width="50" height="50" fill="white" transform="translate(6.10352e-05 0.000244141)"/>
</clipPath>
</defs>
</svg>
